<?xml version="1.0" encoding="UTF-8"?>
<!DOCTYPE svg PUBLIC "-//W3C//DTD SVG 1.1//EN" "http://www.w3.org/Graphics/SVG/1.1/DTD/svg11.dtd">
<!-- Creator: CorelDRAW -->
<svg xmlns="http://www.w3.org/2000/svg" xml:space="preserve" width="140.42mm" height="48.642mm" version="1.1" style="shape-rendering:geometricPrecision; text-rendering:geometricPrecision; image-rendering:optimizeQuality; fill-rule:evenodd; clip-rule:evenodd"
viewBox="0 0 14041.98 4864.2"
 xmlns:xlink="http://www.w3.org/1999/xlink"
 xmlns:xodm="http://www.corel.com/coreldraw/odm/2003">
 <defs>
  <style type="text/css">
   <![CDATA[
    .fil0 {fill:#435EBE}
    .fil1 {fill:#435EBE;fill-rule:nonzero}
   ]]>
  </style>
 </defs>
 <g id="Camada_x0020_1">
  <metadata id="CorelCorpID_0Corel-Layer"/>
  <g id="_2406296582800">
   <path class="fil0" d="M7163.52 4235.7l-30.61 130.74c-4.63,22.25 -10.66,39.42 -18.08,51.46 -7.41,12.06 -17.61,20.39 -30.6,25.02 -34.31,14.86 -79.27,22.27 -134.92,22.27 -81.58,0 -122.37,-32.93 -122.37,-98.75 0,-52.86 19.02,-89.96 57.01,-111.28 30.6,-17.61 82.08,-26.43 154.39,-26.43 49.14,0 90.88,2.33 125.18,6.97zm82.05 184.98l68.15 -319.9c10.22,-48.23 15.32,-88.55 15.32,-121 0,-29.66 -6.26,-54.24 -18.8,-73.72 -12.52,-19.48 -30.58,-33.62 -54.22,-42.41 -23.65,-8.81 -47.3,-14.86 -70.95,-18.09 -23.65,-3.24 -52.16,-4.87 -85.52,-4.87 -84.39,0 -157.17,10.21 -218.37,30.6 -21.32,7.43 -32,18.53 -32,33.39 0,6.48 3.25,23.65 9.76,51.44 3.69,12.99 10.63,19.48 20.84,19.48 5.56,0 22.25,-3.24 50.07,-9.71 47.3,-10.21 96.43,-15.32 147.43,-15.32 81.6,0 122.38,23.64 122.38,70.93 0,24.12 -3.22,50.07 -9.7,77.9l-9.76 40.33c-57.49,-4.64 -103.4,-6.95 -137.71,-6.95 -101.98,0 -175.22,12.05 -219.73,36.16 -77.88,39.87 -116.84,114.06 -116.84,222.54 0,50.06 16.46,91.3 49.37,123.79 32.94,32.44 88.79,48.67 167.59,48.67 101.07,0 182.69,-12.98 244.81,-38.96 23.18,-9.25 39.87,-20.39 50.06,-33.37 12.99,-16.7 22.25,-40.33 27.82,-70.93zm-570.24 -813.64c0,-38.02 -21.33,-57.03 -63.97,-57.03 -25.04,0 -44.98,7.41 -59.8,22.24 -17.62,17.63 -26.43,42.66 -26.43,75.11 0,38.04 21.78,57.04 65.36,57.04 23.19,0 42.19,-6.52 57.03,-19.49 18.55,-17.61 27.81,-43.56 27.81,-77.87zm-193.31 909.6l130.73 -611.96c2.79,-13.91 4.17,-22.75 4.17,-26.43 0,-14.84 -7.88,-22.25 -23.65,-22.25l-66.76 0c-18.55,0 -30.14,10.67 -34.78,32l-132.12 613.34c-1.85,11.11 -2.77,19.49 -2.77,25.05 0,14.83 7.88,22.24 23.65,22.24l66.76 0c18.55,0 30.13,-10.66 34.77,-31.99zm-617.56 -215.59c0,-51.91 7.43,-104.76 22.29,-158.53 14.81,-53.79 37.07,-96.43 66.74,-127.96 41.72,-43.58 96.89,-65.39 165.51,-65.39 41.71,0 77.89,3.26 108.47,9.74 20.42,4.64 33.85,6.98 40.34,6.98 12.07,0 20.41,-5.58 25.05,-16.72 12.05,-28.73 18.08,-50.05 18.08,-63.96 0,-12.98 -6.95,-21.8 -20.86,-26.43 -38.94,-12.07 -90.41,-18.09 -154.4,-18.09 -112.18,0 -197.95,29.22 -257.28,87.64 -48.21,47.27 -84.39,107.79 -108.5,181.49 -24.11,73.73 -36.17,146.27 -36.17,217.67 0,77.88 22.27,136.75 66.76,176.63 44.52,39.87 105.71,59.82 183.6,59.82 78.82,0 145.12,-8.34 198.89,-25.06 20.39,-6.47 30.59,-15.75 30.59,-27.79 0,-10.22 -3.7,-28.77 -11.13,-55.65 -2.77,-12.98 -9.73,-19.46 -20.85,-19.46 -3.71,0 -10.22,1.16 -19.47,3.48 -9.28,2.32 -15.32,3.94 -18.09,4.87 -42.65,9.26 -85.3,13.89 -127.95,13.89 -101.08,0 -151.62,-52.36 -151.62,-157.17zm-805.27 215.59l102.91 -479.84c4.64,-20.39 10.2,-33.82 16.68,-40.33 5.58,-4.65 15.76,-10.68 30.61,-18.1 50.08,-20.37 103.4,-30.58 159.95,-30.58 72.32,0 108.46,22.72 108.46,68.14 0,13.92 -3.69,39.41 -11.12,76.5l-87.62 407.52c-2.79,13.91 -4.16,23.18 -4.16,27.82 0,13.89 8.34,20.86 25.02,20.86l66.76 0c17.63,0 28.75,-10.66 33.39,-31.99l93.2 -436.73c9.26,-40.79 13.9,-80.21 13.9,-118.21 0,-43.57 -17.84,-74.86 -53.56,-93.87 -35.69,-19.04 -79.5,-28.53 -131.42,-28.53 -122.39,0 -225.78,19.48 -310.17,58.41 -33.38,14.84 -54.7,42.66 -63.98,83.45l-109.87 520.18c-2.79,11.11 -4.17,19.95 -4.17,26.43 0,13.89 8.34,20.86 25.03,20.86l66.76 0c17.63,0 28.75,-10.66 33.4,-31.99zm-552.17 -769.13c14.82,0 30.58,-8.34 47.27,-25.03l121.01 -123.79 72.32 123.79c9.27,16.69 23.18,25.03 41.71,25.03 13.94,0 28.3,-0.91 43.11,-2.78 15.77,-3.7 23.67,-11.12 23.67,-22.25 0,-7.42 -2.33,-15.77 -6.95,-25.04l-87.63 -173.86c-10.2,-19.47 -24.1,-29.21 -41.73,-29.21l-55.65 0c-18.54,0 -37.06,10.2 -55.61,30.6l-153 168.3c-11.12,11.13 -16.68,21.32 -16.68,30.59 0,12.07 6.48,19.01 19.47,20.87 14.84,1.87 31.06,2.78 48.69,2.78zm-121.01 389.45c17.61,-63.07 40.32,-108.95 68.15,-137.72 38.01,-38 89.46,-57.01 154.38,-57.01 45.44,0 77.19,7.89 95.27,23.66 18.1,15.75 27.11,39.87 27.11,72.31 0,38.01 -4.15,70.91 -12.5,98.76l-332.41 0zm-20.88 98.74l408.92 0c15.75,0 26.89,-2.78 33.38,-8.35 8.34,-6.49 15.31,-20.41 20.86,-41.72 12.99,-52.85 19.47,-106.65 19.47,-161.34 0,-58.4 -16.68,-103.63 -50.08,-135.62 -33.36,-31.99 -89.46,-47.98 -168.29,-47.98 -109.42,0 -194.71,30.14 -255.9,90.41 -48.23,47.27 -83.92,106.64 -107.12,178.01 -23.15,71.4 -34.76,143.73 -34.76,217 0,76.02 22.03,134.68 66.08,175.93 44.02,41.28 110.09,61.9 198.18,61.9 94.59,0 171.56,-11.61 230.9,-34.76 19.46,-7.43 29.2,-18.09 29.2,-32 0,-9.29 -4.18,-26.43 -12.52,-51.47 -2.78,-11.14 -9.26,-16.7 -19.47,-16.7 -1.85,0 -15.3,2.79 -40.33,8.35 -52.87,13.92 -104.79,20.86 -155.79,20.86 -56.56,0 -98.97,-10.87 -127.26,-32.68 -28.27,-21.78 -42.41,-58.65 -42.41,-110.56 0,-22.27 2.31,-48.7 6.94,-79.28zm-454.8 143.25c-2.77,11.13 -6.48,21.32 -11.12,30.6 -6.49,10.21 -17.15,18.55 -31.99,25.02 -35.23,15.78 -79.75,23.65 -133.52,23.65 -95.51,0 -143.27,-50.53 -143.27,-151.6 0,-55.63 9.05,-111.04 27.14,-166.19 18.08,-55.18 41.49,-98.52 70.24,-130.05 37.09,-42.66 94.1,-63.99 171.06,-63.99 48.23,0 86.23,5.09 114.05,15.31 12.96,4.64 19.47,12.99 19.47,25.04 0,2.79 -0.92,8.81 -2.77,18.07l-79.29 374.14zm-34.76 148.82l-6.94 27.83c-13.94,52.83 -29.21,90.4 -45.92,112.66 -22.25,30.58 -56.11,53.52 -101.53,68.83 -45.44,15.31 -120.53,24.35 -225.31,27.12 -23.19,0.94 -36.18,10.22 -38.96,27.82 -1.84,16.69 -2.77,34.31 -2.77,52.85 0,17.63 12.53,26.44 37.54,26.44 125.17,0 224.63,-14.16 298.36,-42.41 73.7,-28.31 126.8,-74.9 159.24,-139.79 23.17,-46.38 42.66,-108.03 58.43,-185l116.81 -556.33c3.72,-22.25 5.56,-35.24 5.56,-38.95 0,-16.69 -11.12,-29.2 -33.37,-37.55 -55.63,-20.39 -129.34,-30.6 -221.14,-30.6 -116.85,0 -206.77,30.14 -269.84,90.41 -46.34,45.44 -81.81,104.77 -106.38,178.01 -24.57,73.28 -36.88,144.67 -36.88,214.21 0,159.46 78.37,239.22 235.06,239.22 76.03,0 135.38,-11.58 178.04,-34.77zm-707.94 -292.07l-30.62 130.74c-4.64,22.25 -10.65,39.42 -18.07,51.46 -7.41,12.06 -17.61,20.39 -30.6,25.02 -34.31,14.86 -79.29,22.27 -134.91,22.27 -81.59,0 -122.38,-32.93 -122.38,-98.75 0,-52.86 19.01,-89.96 57.02,-111.28 30.58,-17.61 82.06,-26.43 154.38,-26.43 49.13,0 90.87,2.33 125.18,6.97zm82.04 184.98l68.16 -319.9c10.2,-48.23 15.3,-88.55 15.3,-121 0,-29.66 -6.25,-54.24 -18.78,-73.72 -12.53,-19.48 -30.59,-33.62 -54.25,-42.41 -23.63,-8.81 -47.27,-14.86 -70.93,-18.09 -23.64,-3.24 -52.16,-4.87 -85.52,-4.87 -84.39,0 -157.17,10.21 -218.37,30.6 -21.33,7.43 -31.99,18.53 -31.99,33.39 0,6.48 3.24,23.65 9.74,51.44 3.7,12.99 10.64,19.48 20.85,19.48 5.56,0 22.27,-3.24 50.08,-9.71 47.29,-10.21 96.42,-15.32 147.41,-15.32 81.62,0 122.41,23.64 122.41,70.93 0,24.12 -3.24,50.07 -9.73,77.9l-9.74 40.33c-57.5,-4.64 -103.38,-6.95 -137.69,-6.95 -102,0 -175.25,12.05 -219.77,36.16 -77.86,39.87 -116.82,114.06 -116.82,222.54 0,50.06 16.46,91.3 49.37,123.79 32.93,32.44 88.79,48.67 167.59,48.67 101.08,0 182.68,-12.98 244.8,-38.96 23.19,-9.25 39.87,-20.39 50.07,-33.37 12.99,-16.7 22.25,-40.33 27.81,-70.93z"/>
   <path class="fil0" d="M11309.61 3555.57c0,-1.85 0.45,-4.64 1.37,-8.35 0.94,-3.69 1.64,-6.72 2.1,-9.02 0.46,-2.34 0.7,-4.42 0.7,-6.27 0,-17.6 -10.19,-26.44 -30.61,-26.44l-84.83 0c-20.39,0 -33.83,13.94 -40.35,41.73l-164.1 771.93c-8.35,38.02 -12.53,69.54 -12.53,94.59 0,92.71 65.84,139.08 197.49,139.08 24.13,0 39.42,-9.29 45.91,-27.84 7.41,-22.24 11.12,-42.66 11.12,-61.19 0,-17.61 -8.35,-27.81 -25.02,-30.6 -25.03,-3.72 -43.12,-9.5 -54.25,-17.37 -11.14,-7.88 -16.71,-21.12 -16.71,-39.66 0,-16.69 3.27,-39.85 9.77,-69.54l159.94 -751.05zm-655.1 688.47l-25.03 105.72c-4.64,21.33 -10.2,38.47 -16.69,51.45 -8.34,12.98 -17.63,21.33 -27.83,25.02 -30.59,12.99 -70.46,19.48 -119.62,19.48 -72.32,0 -108.46,-28.74 -108.46,-86.24 0,-45.42 16.68,-77.88 50.06,-97.34 27.82,-15.78 73.7,-23.64 137.7,-23.64 47.28,0 83.92,1.85 109.87,5.55zm114.06 178.03l68.15 -318.5c10.19,-48.23 15.28,-89.01 15.28,-122.41 0,-25.04 -4.62,-46.36 -13.9,-63.96 -9.28,-17.63 -20.86,-31.3 -34.77,-41.02 -13.91,-9.76 -32.21,-17.63 -54.93,-23.65 -22.73,-6.02 -44.29,-9.76 -64.69,-11.13 -20.38,-1.41 -44.49,-2.1 -72.31,-2.1 -86.24,0 -161.8,10.2 -226.72,30.61 -24.11,8.35 -36.15,21.32 -36.15,38.93 0,13.93 3.71,34.77 11.14,62.6 3.68,15.76 11.56,23.65 23.63,23.65 8.34,0 26.43,-3.27 54.23,-9.74 38.96,-8.35 86.23,-12.53 141.87,-12.53 74.19,0 111.28,20.86 111.28,62.59 0,17.61 -2.79,39.41 -8.35,65.37l-6.96 33.39c-52.86,-4.64 -95.97,-6.97 -129.34,-6.97 -101.99,0 -176.17,12.98 -222.56,38.96 -76.93,41.71 -115.42,116.36 -115.42,223.92 0,115.91 74.64,173.86 223.92,173.86 102,0 186.37,-12.07 253.14,-36.17 25.02,-9.27 42.65,-20.39 52.86,-33.38 12.97,-15.76 23.17,-39.86 30.6,-72.32zm-745.5 -435.33l120.99 0c23.2,0 37.1,-9.74 41.74,-29.2 9.28,-30.62 13.91,-55.19 13.91,-73.72 0,-17.63 -11.6,-26.43 -34.77,-26.43l-116.81 0 27.8 -126.56c3.7,-14.84 5.55,-28.75 5.55,-41.74 0,-15.77 -8.8,-23.65 -26.42,-23.65l-79.28 0c-20.39,0 -33.84,12.54 -40.34,37.56l-37.55 154.39 -72.31 0c-21.34,0 -35.24,10.65 -41.73,31.98 -8.36,36.18 -12.51,61.21 -12.51,75.1 0,14.86 8.79,22.27 26.42,22.27l70.93 0 -58.43 265.65c-12.96,63.06 -19.45,111.27 -19.45,144.65 0,61.18 22.94,102.91 68.83,125.16 45.92,22.24 109.19,33.86 189.87,34.77 22.24,0 36.61,-10.19 43.11,-30.58 7.41,-29.67 11.1,-51.48 11.1,-65.39 0,-18.54 -9.7,-29.2 -29.19,-31.99 -49.15,-4.64 -80.67,-12.04 -94.57,-22.24 -18.55,-13.9 -27.81,-34.76 -27.81,-62.59 0,-24.11 2.78,-48.23 8.35,-72.34l62.57 -285.1zm-315.71 -379.7c0,-43.58 -24.58,-65.37 -73.71,-65.37 -28.74,0 -51.93,8.81 -69.55,26.43 -19.47,18.55 -29.2,46.81 -29.2,84.85 0,43.57 25.02,65.35 75.11,65.35 26.88,0 49.13,-7.89 66.76,-23.64 20.39,-17.6 30.59,-46.83 30.59,-87.62zm-187.76 905.42l127.96 -600.85c0,-1.83 0.69,-5.06 2.08,-9.7 1.4,-4.66 2.32,-9.06 2.78,-13.24 0.46,-4.17 0.7,-7.18 0.7,-9.03 0,-16.7 -8.81,-25.04 -26.44,-25.04l-90.4 0c-20.39,0 -32.91,12.07 -37.56,36.17l-129.32 598.07c-3.74,12.98 -5.56,24.56 -5.56,34.78 0,16.67 9.25,25.01 27.8,25.01l89.01 0c20.41,0 33.39,-12.03 38.95,-36.17zm-478.45 -150.21c-3.69,13.91 -7.43,23.65 -11.12,29.22 -4.64,9.29 -13.91,17.15 -27.83,23.65 -29.67,12.98 -69.06,19.46 -118.22,19.46 -83.44,0 -125.17,-44.03 -125.17,-132.12 0,-50.99 8.35,-102.94 25.05,-155.79 16.68,-52.83 38,-94.11 63.98,-123.77 34.29,-38.01 84.81,-57.02 151.58,-57.02 39.88,0 72.8,4.63 98.75,13.91 12.07,4.64 18.09,12.99 18.09,25.02 0,1.86 -0.92,8.34 -2.78,19.48l-72.33 337.96zm-40.33 169.7l-5.55 26.43c-11.14,43.57 -25.52,76.48 -43.12,98.74 -22.27,26.89 -54.48,47.06 -96.67,60.5 -42.19,13.44 -113.81,21.55 -214.89,24.33 -15.76,0.95 -26.88,3.73 -33.39,8.37 -6.48,4.61 -10.66,12.96 -12.51,25.03 -1.86,18.54 -2.78,39.88 -2.78,63.97 0,21.33 14.37,32 43.11,32 133.53,0 237.6,-14.85 312.25,-44.51 74.63,-29.68 128.65,-79.27 162.04,-148.84 23.17,-47.27 42.65,-109.87 58.4,-187.76l112.68 -538.24c3.69,-22.27 5.57,-36.17 5.57,-41.73 0,-17.63 -11.61,-30.6 -34.78,-38.95 -58.41,-21.33 -136.78,-31.99 -235.06,-31.99 -116.82,0 -206.78,29.2 -269.81,87.62 -47.31,44.52 -83.23,104.1 -107.8,178.75 -24.59,74.63 -36.87,147.17 -36.87,217.65 0,159.46 79.28,239.21 237.83,239.21 71.4,0 125.19,-10.2 161.35,-30.58zm-432.56 -924.91c0,-43.58 -24.56,-65.37 -73.69,-65.37 -28.75,0 -51.93,8.81 -69.53,26.43 -19.5,18.55 -29.23,46.81 -29.23,84.85 0,43.57 25.04,65.35 75.11,65.35 26.89,0 49.13,-7.89 66.76,-23.64 20.39,-17.6 30.58,-46.83 30.58,-87.62zm-187.75 905.42l127.97 -600.85c0,-1.83 0.69,-5.06 2.08,-9.7 1.39,-4.66 2.31,-9.06 2.77,-13.24 0.45,-4.17 0.71,-7.18 0.71,-9.03 0,-16.7 -8.81,-25.04 -26.44,-25.04l-90.4 0c-20.38,0 -32.91,12.07 -37.55,36.17l-129.35 598.07c-3.72,12.98 -5.55,24.56 -5.55,34.78 0,16.67 9.25,25.01 27.8,25.01l89.02 0c20.39,0 33.38,-12.03 38.94,-36.17zm-486.81 -151.59c-1.84,10.22 -6.48,22.72 -13.91,37.56 -4.61,9.26 -13.89,16.69 -27.8,22.25 -28.76,11.12 -66.76,16.68 -114.05,16.68 -83.45,0 -125.17,-43.58 -125.17,-130.74 0,-58.4 9.28,-114.74 27.83,-168.98 18.54,-54.24 43.57,-95.73 75.09,-124.49 34.32,-31.51 81.59,-47.27 141.86,-47.27 42.66,0 75.1,5.1 97.35,15.28 9.29,3.73 13.93,11.62 13.93,23.65 0,8.34 -0.96,15.77 -2.78,22.25l-72.35 333.81zm140.49 72.32l186.38 -877.62c0.91,-5.56 1.37,-13.44 1.37,-23.64 0,-17.6 -9.72,-26.44 -29.2,-26.44l-84.83 0c-21.33,0 -35.23,13.94 -41.72,41.73l-63.99 311.57c-30.59,-12.99 -74.65,-19.49 -132.12,-19.49 -116.83,0 -204.93,27.82 -264.27,83.47 -50.06,47.26 -87.62,108.46 -112.68,183.58 -25.01,75.1 -37.53,150.68 -37.53,226.69 0,76.06 22.01,133.53 66.08,172.47 44.02,38.93 107.3,58.43 189.83,58.43 101.08,0 183.14,-12.52 246.18,-37.55 27.81,-10.2 46.83,-23.65 57.03,-40.33 9.25,-12.99 15.77,-30.62 19.47,-52.87z"/>
   <path class="fil1" d="M6732.5 973.12c0,-60.28 -35.6,-94.54 -106.87,-102.76 -150.71,-19.19 -315.12,-28.8 -493.26,-28.8 -82.2,0 -146.62,45.24 -193.19,135.67 -224.71,424.76 -416.53,813.87 -575.48,1167.4 -13.7,-257.61 -39.72,-641.26 -78.09,-1150.96 -8.24,-101.4 -57.54,-152.11 -147.99,-152.11 -167.16,0 -328.86,9.61 -485.04,28.8 -41.1,2.73 -72.64,19.18 -94.54,49.31 -21.92,30.14 -32.9,65.77 -32.9,106.87 0,24.68 2.74,53.45 8.21,86.33l185 1442.8c16.45,134.26 53.43,229.52 110.97,285.68 57.56,56.19 160.32,84.26 308.3,84.26l156.2 0c139.76,0 248.01,-27.38 324.71,-82.2 76.74,-54.8 153.46,-149.36 230.2,-283.65l830.32 -1430.45c35.65,-60.3 53.45,-112.34 53.45,-156.19z"/>
   <path class="fil1" d="M3390.64 1953.48c-32.88,157.57 -72.61,265.12 -119.2,322.67 -52.07,63.04 -117.85,94.55 -197.31,94.55 -71.27,0 -121.26,-15.06 -150.03,-45.23 -28.79,-30.13 -43.18,-84.94 -43.18,-164.42 0,-82.2 14.39,-192.51 43.18,-330.87 28.77,-138.4 65.08,-243.21 108.92,-314.48 49.35,-79.46 120.57,-119.21 213.76,-119.21 73.99,0 124.67,13.72 152.09,41.13 27.42,27.38 41.09,78.08 41.09,152.08 0,84.96 -16.42,206.18 -49.32,363.78zm546.71 -1044.08c-93.16,-45.22 -189.09,-75.37 -287.75,-90.43 -98.65,-15.07 -220.61,-22.62 -365.84,-22.62 -331.57,0 -593.29,94.56 -785.12,283.65 -139.74,139.75 -241.16,313.75 -304.17,522.03 -63.04,208.28 -94.53,419.29 -94.53,633.03 0,150.72 22.6,275.41 67.82,374.04 45.23,98.65 113.02,172.65 203.47,221.98 90.43,49.31 185.66,83.57 285.7,102.76 99.99,19.18 219.87,28.76 359.66,28.76 191.83,0 352.81,-22.59 482.98,-67.8 130.17,-45.22 243.21,-119.91 339.12,-224.04 126.06,-136.99 221.3,-319.24 285.7,-546.69 64.38,-227.44 96.58,-438.46 96.58,-633.01 0,-147.98 -23.99,-270.63 -71.93,-367.92 -47.95,-97.29 -118.52,-168.53 -211.69,-213.74z"/>
   <path class="fil1" d="M1767 2251.5l-772.8 0c-84.95,0 -127.42,-31.53 -127.42,-94.57 0,-27.37 6.82,-75.34 20.55,-143.85l374.04 -1767.54 24.66 -135.64c0,-68.5 -39.72,-102.76 -119.17,-102.76l-501.5 0c-93.17,0 -152.1,56.18 -176.75,168.53l-468.59 2195.03c-13.72,63.01 -20.55,127.42 -20.55,193.19 0,117.85 34.91,204.86 104.8,261.01 69.87,56.2 180.15,84.29 330.89,84.29l1212.61 0c84.96,0 137.03,-38.37 156.21,-115.11 57.54,-235.69 86.33,-386.37 86.33,-452.15 0,-60.3 -41.11,-90.43 -123.31,-90.43z"/>
   <path class="fil1" d="M7842.37 2165.17c-21.94,93.19 -35.64,148 -41.11,164.42 -8.21,24.67 -26.03,45.23 -53.42,61.64 -41.1,24.69 -105.52,37.03 -193.22,37.03 -115.1,0 -172.64,-46.59 -172.64,-139.78 0,-73.96 26.05,-128.79 78.09,-164.41 41.09,-27.42 115.11,-41.1 221.99,-41.1 68.51,0 127.42,2.73 176.76,8.21l-16.45 73.99zm676.2 -1296.87c-83.58,-28.78 -167.2,-47.95 -250.78,-57.54 -83.57,-9.59 -191.13,-14.41 -322.65,-14.41 -298.7,0 -543.98,30.15 -735.79,90.45 -104.14,32.87 -156.23,91.8 -156.23,176.75 0,79.47 9.62,176.74 28.8,291.84 13.69,71.27 49.33,106.88 106.87,106.88 30.16,0 94.54,-8.23 193.19,-24.65 126.05,-16.45 250.74,-24.68 374.07,-24.68 145.25,0 217.86,35.64 217.86,106.87 0,21.92 -2.76,46.6 -8.2,74.01l-8.24 41.09c-106.88,-8.22 -201.42,-12.34 -283.65,-12.34 -326.09,0 -557.66,43.86 -694.66,131.55 -219.24,139.75 -328.86,365.83 -328.86,678.22 0,158.96 53.45,287.07 160.32,384.33 106.88,97.3 302.83,145.94 587.8,145.94 328.85,0 602.89,-30.12 822.12,-90.4 82.22,-24.68 146.62,-57.59 193.2,-98.7 46.56,-43.83 82.21,-119.19 106.87,-226.07l205.53 -953.62c24.68,-120.61 36.98,-235.69 36.98,-345.29 0,-98.65 -19.87,-179.5 -59.59,-242.56 -39.72,-63.01 -101.39,-108.92 -184.96,-137.67z"/>
   <path class="fil1" d="M14041.45 123.41c0,-71.24 -45.26,-106.88 -135.62,-106.88l-456.29 0c-93.12,0 -153.46,60.32 -180.86,180.89l-431.61 2026.49c-20.73,101.52 -33.54,192.79 -38.59,273.94l876.07 -608.7 354.57 -1662.94c8.24,-57.57 12.33,-91.81 12.33,-102.8z"/>
   <path class="fil1" d="M10427.9 853.92l-238.42 0 65.78 -300.07c16.43,-82.24 24.67,-139.78 24.67,-172.65 0,-65.77 -41.12,-98.65 -123.35,-98.65l-435.68 0c-82.24,0 -139.79,50.68 -172.66,152.07 -41.09,147.98 -76.73,287.77 -106.88,419.3l-184.98 0c-90.43,0 -147.96,46.56 -172.64,139.75 -46.57,186.33 -69.86,305.57 -69.86,357.61 0,65.77 36.97,98.67 110.99,98.67l172.64 0 -102.77 489.17c-46.57,219.19 -69.87,386.35 -69.87,501.46 0,101.41 22.59,186.35 67.81,254.87 45.21,68.5 113.72,119.17 205.52,152.08 91.81,32.87 187.72,56.16 287.72,69.88 100.03,13.7 222.68,20.55 367.91,20.55 93.18,0 152.1,-46.57 176.77,-139.76 41.09,-123.32 61.64,-226.08 61.64,-308.27 0,-82.21 -36.98,-127.45 -111,-135.67 -115.05,-13.69 -186.33,-34.25 -213.75,-61.66 -30.12,-30.15 -45.21,-69.89 -45.21,-119.2 0,-35.63 6.86,-90.43 20.57,-164.43l119.22 -559.02 267.16 0c95.94,0 154.83,-39.75 176.77,-119.21 46.58,-167.18 69.88,-287.73 69.88,-361.74 0,-76.73 -49.33,-115.08 -147.98,-115.08z"/>
   <path class="fil1" d="M13050.73 2857.96c237.78,106.11 555.51,149.1 550.91,262.05l11.23 -274.82c-10.19,1.62 -20.63,2.95 -31.93,3.41l-530.21 9.36z"/>
   <path class="fil1" d="M11574.74 1363.63c49.31,-41.12 108.25,-61.68 176.74,-61.68 63.01,0 105.5,12.35 127.42,37.01 21.93,24.67 32.91,63.03 32.91,115.08 0,65.77 -9.62,120.59 -28.81,164.43l-435.7 0c30.13,-123.31 72.62,-208.26 127.44,-254.84zm624.79 949.53c-13.69,0 -30.83,1.36 -51.35,4.12 -20.58,2.74 -41.13,6.83 -61.66,12.3 -20.58,5.49 -33.59,8.24 -39.07,8.24 -109.62,21.93 -241.17,32.88 -394.6,32.88 -109.64,0 -189.78,-13.71 -240.49,-41.12 -50.69,-27.38 -76.04,-80.81 -76.04,-160.3 0,-5.47 0.71,-15.76 2.05,-30.83 1.38,-15.06 2.07,-26.73 2.07,-34.92l990.62 0c43.86,0 79.47,-8.22 106.88,-24.69 32.9,-19.17 63.03,-68.5 90.45,-147.96 54.79,-180.88 82.2,-365.86 82.2,-554.92 0,-186.33 -58.23,-329.57 -174.71,-429.56 -116.45,-100.01 -311.71,-150.05 -585.73,-150.05 -339.81,0 -604.27,79.46 -793.36,238.42 -158.91,134.29 -279.49,312.4 -361.72,534.37 -82.2,221.95 -123.31,439.82 -123.31,653.58 0,493.26 289.12,739.88 867.32,739.88 386.38,0 657.68,-38.35 813.9,-115.08 63.03,-30.14 94.53,-78.1 94.53,-143.84 0,-76.75 -16.45,-178.15 -49.32,-304.2 -13.72,-57.55 -46.59,-86.32 -98.66,-86.32z"/>
   <path class="fil0" d="M12487.92 3036.52l1261.63 -876.58c84.92,-56.96 183.65,-48.38 158.62,85.19 -44.9,254.25 -89.81,508.51 -134.75,762.76 -22.01,97.58 -77.6,152.82 -183.16,157.17l-1039.48 18.33c-122.55,7.57 -168,-74.95 -62.86,-146.87z"/>
  </g>
 </g>
</svg>
