<svg width="50" height="51" viewBox="0 0 50 51" fill="none" xmlns="http://www.w3.org/2000/svg">
<g id="Group">
<g id="Group 61">
<circle id="Ellipse 14" cx="25.5" cy="25.5" r="21.5" fill="white"/>
<path id="Vector" d="M25 0C11.195 0 0 11.4189 0 25.5C0 39.5811 11.195 51 25 51C38.805 51 50 39.5811 50 25.5C50 11.4189 38.805 0 25 0ZM25.5299 40.3469C25.5295 40.3469 25.5302 40.3469 25.5299 40.3469H25.5238C23.0194 40.3457 20.5585 39.7052 18.3731 38.4897L10.4412 40.6114L12.5641 32.7049C11.2545 30.3914 10.5656 27.7665 10.5667 25.0774C10.5701 16.6651 17.2825 9.82125 25.5299 9.82125C29.5322 9.82281 33.2893 11.4119 36.1141 14.2955C38.9393 17.1795 40.4942 21.0129 40.4926 25.0895C40.4892 33.5022 33.7761 40.3469 25.5299 40.3469Z" fill="#25D366"/>
<path id="Vector_2" d="M25.5366 12.3984C18.6767 12.3984 13.0977 18.0867 13.0946 25.0788C13.0938 27.4749 13.7515 29.8083 14.9962 31.8273L15.2919 32.3071L14.0353 36.9868L18.7423 35.7277L19.1966 36.0024C21.1059 37.158 23.2947 37.7693 25.5263 37.7701H25.5313C32.3859 37.7701 37.9649 32.0814 37.968 25.0889C37.9691 21.7003 36.6767 18.5143 34.3287 16.1175C31.9808 13.7206 28.8581 12.3996 25.5366 12.3984ZM32.8517 30.5309C32.54 31.4211 31.0466 32.234 30.3283 32.3437C29.684 32.4417 28.8691 32.4826 27.9734 32.1927C27.4302 32.0168 26.7341 31.7822 25.8418 31.3896C22.0916 29.7383 19.6422 25.8877 19.4552 25.6333C19.2683 25.3788 17.9286 23.566 17.9286 21.6894C17.9286 19.8131 18.8945 18.8906 19.237 18.5092C19.58 18.1275 19.9851 18.0322 20.2342 18.0322C20.4833 18.0322 20.7328 18.0345 20.9506 18.0454C21.1802 18.0571 21.4885 17.9563 21.7917 18.6999C22.1034 19.4633 22.8511 21.3396 22.9445 21.5302C23.038 21.7213 23.1002 21.9438 22.9758 22.1983C22.8511 22.4528 22.4368 23.0018 22.0412 23.5022C21.8753 23.7119 21.659 23.8987 21.8772 24.2804C22.095 24.6617 22.8457 25.9103 23.957 26.9212C25.3852 28.22 26.5899 28.6223 26.9637 28.8134C27.3372 29.004 27.5554 28.9721 27.7736 28.7181C27.9914 28.4636 28.7082 27.6048 28.9573 27.2231C29.2064 26.8414 29.4558 26.9052 29.7984 27.0325C30.1413 27.1593 31.9793 28.0819 32.3531 28.2725C32.7269 28.4636 32.976 28.5589 33.0695 28.7181C33.1633 28.8772 33.1633 29.6402 32.8517 30.5309Z" fill="#25D366"/>
</g>
</g>
</svg>
